<svg xmlns="http://www.w3.org/2000/svg" xmlns:xlink="http://www.w3.org/1999/xlink" viewBox="0 0 76.8 64"><g opacity=".1"><defs><path id="a" d="M0 0h76.8v64H0z"/></defs><clipPath id="b"><use xlink:href="#a" overflow="visible"/></clipPath><path clip-path="url(#b)" d="M24.4 28.9c-1.9-.5-3.8-.8-5.6-.8-2.8 0-5.2.6-7 1.4 1.8-6.4 6-17.6 14.4-18.8.8-.1 1.4-.7 1.6-1.4l1.8-6.6c.2-.6.1-1.2-.3-1.6-.3-.5-.8-.8-1.4-.9-.5-.2-1.1-.2-1.7-.2C16.1 0 6 10.6 1.8 25.7c-2.5 8.9-3.2 22.2 2.9 30.6 3.4 4.7 8.4 7.2 14.8 7.5h.1c7.9 0 14.9-5.3 17.1-13 1.3-4.6.7-9.4-1.6-13.5s-6.1-7.1-10.7-8.4zM74 37.2c-2.3-4.1-6.1-7.1-10.7-8.4-1.9-.5-3.8-.8-5.6-.8-2.8 0-5.2.6-7 1.4 1.8-6.4 6-17.6 14.4-18.8.8-.1 1.4-.7 1.6-1.4l1.8-6.6c.2-.6.1-1.2-.3-1.6-.2-.5-.7-.8-1.2-.9-.7-.1-1.3-.1-1.9-.1C55 0 44.9 10.6 40.7 25.7c-2.5 8.9-3.2 22.2 2.9 30.6C47 61 52 63.5 58.4 63.8h.1c7.9 0 14.9-5.3 17.1-13 1.3-4.6.7-9.4-1.6-13.6zm0 0"/></g></svg>