<svg xmlns="http://www.w3.org/2000/svg" xmlns:xlink="http://www.w3.org/1999/xlink" viewBox="0 0 76.8 64"><g opacity=".1"><defs><path id="a" d="M0 0h76.8v64H0z"/></defs><clipPath id="b"><use xlink:href="#a" overflow="visible"/></clipPath><path clip-path="url(#b)" d="M52.4 28.9c-4.6 1.3-8.4 4.3-10.7 8.4-2.3 4.1-2.9 8.9-1.6 13.5 2.1 7.6 9.2 13 17.1 13h.1c6.4-.3 11.4-2.8 14.8-7.5 6.1-8.4 5.4-21.7 2.9-30.6C70.8 10.6 60.7 0 50.6 0c-.6 0-1.3 0-1.9.1-.6.1-1.1.4-1.4.9-.3.5-.4 1.1-.3 1.6l1.8 6.6c.2.8.9 1.3 1.6 1.4C59 11.9 63.2 23 65 29.5c-1.8-.8-4.2-1.4-7-1.4-1.9 0-3.7.2-5.6.8zM2.8 37.2C.5 41.3-.1 46.1 1.2 50.7c2.1 7.6 9.2 13 17.1 13h.1c6.4-.3 11.4-2.8 14.8-7.5 6.1-8.4 5.4-21.7 2.9-30.6C31.9 10.6 21.8 0 11.7 0c-.6 0-1.3 0-1.9.1-.5.1-1 .4-1.4.9-.3.5-.4 1.1-.2 1.6L10 9.2c.2.8.9 1.3 1.6 1.4C20 11.9 24.2 23 26 29.4c-1.8-.8-4.2-1.4-7-1.4-1.8 0-3.7.3-5.6.8-4.5 1.4-8.3 4.4-10.6 8.4zm0 0"/></g></svg>